<svg data-v-6805eed4="" version="1.0" xmlns="http://www.w3.org/2000/svg" xmlns:xlink="http://www.w3.org/1999/xlink" width="100%" height="100%" viewBox="0 0 340.000000 250.000000" preserveAspectRatio="xMidYMid meet" color-interpolation-filters="sRGB" style="margin: auto;">   <g data-v-6805eed4="" fill="#FFFFFF" class="basesvg" transform="translate(97.00185400247574,103.52477264404297)"><g data-gra="path-name" fill-rule="" stroke="#FFFFFF" class="tp-name"><g transform="scale(1)"><g><path d="M1.44-37.2204C2.16-36.3384 2.46-35.8092 3.24-34.8684 6.12-31.164 10.02-25.7544 13.98-20.2272 11.7-16.699199999999998 9.9-14.0532 5.88-8.526 4.26-6.2916 2.7-4.704 1.68-3.6456 0.48-2.4108-0.36-0.6468 3.18-0.294 4.92-0.1176 8.1 0.1176 9.06-0.1176 12.12-0.882 10.2-1.2936 14.82-8.526 16.2-10.7016 17.16-12.1128 18.42-13.994399999999999 22.14-8.761199999999999 25.44-4.0572 27.48-1.3523999999999998 28.2-0.3528 30.3 0.6468 33.54-0.5292 35.94-1.3523999999999998 36.78-3.9395999999999995 37.56-5.7036 37.74-5.9976 37.56-6.1152 37.5-6.1152 35.52-6.5268 31.38-7.35 24-18.1692L22.62-20.2272C25.02-23.872799999999998 28.5-29.0472 33.9-37.279199999999996 34.8-38.6904 34.02-39.983999999999995 32.52-39.983999999999995 31.14-39.983999999999995 30.84-39.983999999999995 28.38-40.160399999999996 27.36-40.160399999999996 25.74-40.9836 24.6-37.9848 23.58-35.162400000000005 22.74-33.6336 20.04-29.458799999999997 19.38-28.4592 18.78-27.518399999999996 18.18-26.695199999999996L12.78-34.6332C12.18-35.5152 11.7-36.0444 11.22-36.9852 10.8-37.5732 10.32-38.3964 9.78-39.1608 9.24-39.925200000000004 7.98-39.983999999999995 6.72-39.983999999999995 5.58-39.983999999999995 4.14-40.0428 2.58-40.2192 0.96-40.3368 0.36-38.4552 1.44-37.2204ZM63.54-1.764C63.48-2.5284 63.36-3.3516 63.36-4.116L63.36-14.7C63.42-18.9924 64.86-21.168 67.32-21.168 70.2-21.168 70.8-18.7572 70.8-12.4656L70.8-5.586C70.8-2.7047999999999996 72.84 0 75.72 0 79.14 0 80.76-1.2348 81.3-5.586 81.3-5.7623999999999995 81.12-5.8212 81-5.7623999999999995 78.06-4.4688 77.76-5.5272 77.76-11.4072L77.76-19.8744C77.76-22.755599999999998 75.3-27.636 70.8-28.1064 66.54-28.635599999999997 64.56-27.2832 62.1-24.401999999999997 62.1-24.3432 62.04-24.3432 62.04-24.2844 60.84-26.166 58.98-27.7536 56.4-28.0476 52.2-28.5768 51.12-27.5772 49.02-25.8132 48.84-26.6364 48.12-27.2832 47.28-27.5772L43.68-28.5768C41.28-29.2824 40.74-27.636 40.86-25.9896 41.28-21.8736 41.82-22.932 42.06-9.8196L42.06-4.116C42.06-3.6456 41.88-2.2931999999999997 41.82-1.764 41.76-0.7644 42.66 0 43.68 0L47.34 0C48.36 0 49.26-0.7644 49.14-1.764 49.08-2.2931999999999997 48.96-3.6456 48.96-4.116L48.96-9.8196 48.96-9.995999999999999 48.96-15.1116C49.02-18.228 49.86-21.168 52.92-21.168 55.86-21.168 56.4-19.404 56.4-7.879199999999999L56.4-4.116C56.4-3.3516 56.28-2.5284 56.22-1.764 56.16-0.7644 57.06 0 58.02 0L61.74 0C62.76 0 63.6-0.7644 63.54-1.764ZM110.88-12.1128L111.18-25.4604C111.18-26.46 110.52-27.342 109.44-27.636L105.84-28.5768C104.1-29.0472 102.48-27.636 102.84-25.9308 102.9-25.8132 102.9-25.6368 102.96-25.519199999999998 101.52-27.048000000000002 99-28.3416 95.52-28.3416 88.62-28.3416 83.58-22.5204 83.58-13.4064 83.58-4.2924 87.96 0.2352 95.34 0.2352 99.66 0.2352 102.78-1.47 104.16-4.2336 104.7-1.9404 106.68 0 110.28 0 113.16 0 115.02-3.0576 115.14-5.292 115.14-5.4684 114.96-5.586 114.78-5.4684 112.2-4.174799999999999 110.7-5.3508 110.88-12.1128ZM90.72-14.817599999999999C91.02-19.3452 93.9-22.1088 98.1-21.8736 101.88-21.638399999999997 104.16-18.6984 103.98-14.112 103.74-9.584399999999999 100.92-6.1739999999999995 97.02-6.3504000000000005 92.88-6.5268 90.48-9.8196 90.72-14.817599999999999ZM119.28-23.814L119.28-5.586C119.28-2.7047999999999996 120.12 0 125.34 0 128.76 0 130.74-3.234 130.92-7.644 130.92-7.8204 130.74-7.938 130.56-7.8204 127.44-5.9976 126.18-7.5852 126.18-13.4652L126.18-31.9872C126.18-33.81 126.18-36.632400000000004 126.3-39.3372 126.36-40.3368 125.52-41.2188 124.5-41.5128L120.9-42.5712C118.5-43.218 117.96-41.571600000000004 118.08-39.925200000000004 118.5-35.8092 119.04-36.867599999999996 119.28-23.814ZM135-23.814L135-5.586C135-2.7047999999999996 135.84 0 141.06 0 144.48 0 146.46-3.234 146.64-7.644 146.64-7.8204 146.46-7.938 146.28-7.8204 143.16-5.9976 141.9-7.5852 141.9-13.4652L141.9-31.9872C141.9-33.81 141.9-36.632400000000004 142.02-39.3372 142.08-40.3368 141.24-41.2188 140.22-41.5128L136.62-42.5712C134.22-43.218 133.68-41.571600000000004 133.8-39.925200000000004 134.22-35.8092 134.76-36.867599999999996 135-23.814Z" transform="translate(-0.6437069177627563, 42.71525192260742)" stroke-width="0.9" stroke-linejoin="round" mask="url(#_xoKFctfBFOtLUrWiJOkL)"></path></g> <!----> <!----> <!----> <!----> <!----> <!----> <!----></g></g> <!----></g><mask data-mask="name-path" id="_xoKFctfBFOtLUrWiJOkL"><path d="M1.44-37.2204C2.16-36.3384 2.46-35.8092 3.24-34.8684 6.12-31.164 10.02-25.7544 13.98-20.2272 11.7-16.699199999999998 9.9-14.0532 5.88-8.526 4.26-6.2916 2.7-4.704 1.68-3.6456 0.48-2.4108-0.36-0.6468 3.18-0.294 4.92-0.1176 8.1 0.1176 9.06-0.1176 12.12-0.882 10.2-1.2936 14.82-8.526 16.2-10.7016 17.16-12.1128 18.42-13.994399999999999 22.14-8.761199999999999 25.44-4.0572 27.48-1.3523999999999998 28.2-0.3528 30.3 0.6468 33.54-0.5292 35.94-1.3523999999999998 36.78-3.9395999999999995 37.56-5.7036 37.74-5.9976 37.56-6.1152 37.5-6.1152 35.52-6.5268 31.38-7.35 24-18.1692L22.62-20.2272C25.02-23.872799999999998 28.5-29.0472 33.9-37.279199999999996 34.8-38.6904 34.02-39.983999999999995 32.52-39.983999999999995 31.14-39.983999999999995 30.84-39.983999999999995 28.38-40.160399999999996 27.36-40.160399999999996 25.74-40.9836 24.6-37.9848 23.58-35.162400000000005 22.74-33.6336 20.04-29.458799999999997 19.38-28.4592 18.78-27.518399999999996 18.18-26.695199999999996L12.78-34.6332C12.18-35.5152 11.7-36.0444 11.22-36.9852 10.8-37.5732 10.32-38.3964 9.78-39.1608 9.24-39.925200000000004 7.98-39.983999999999995 6.72-39.983999999999995 5.58-39.983999999999995 4.14-40.0428 2.58-40.2192 0.96-40.3368 0.36-38.4552 1.44-37.2204ZM63.54-1.764C63.48-2.5284 63.36-3.3516 63.36-4.116L63.36-14.7C63.42-18.9924 64.86-21.168 67.32-21.168 70.2-21.168 70.8-18.7572 70.8-12.4656L70.8-5.586C70.8-2.7047999999999996 72.84 0 75.72 0 79.14 0 80.76-1.2348 81.3-5.586 81.3-5.7623999999999995 81.12-5.8212 81-5.7623999999999995 78.06-4.4688 77.76-5.5272 77.76-11.4072L77.76-19.8744C77.76-22.755599999999998 75.3-27.636 70.8-28.1064 66.54-28.635599999999997 64.56-27.2832 62.1-24.401999999999997 62.1-24.3432 62.04-24.3432 62.04-24.2844 60.84-26.166 58.98-27.7536 56.4-28.0476 52.2-28.5768 51.12-27.5772 49.02-25.8132 48.84-26.6364 48.12-27.2832 47.28-27.5772L43.68-28.5768C41.28-29.2824 40.74-27.636 40.86-25.9896 41.28-21.8736 41.82-22.932 42.06-9.8196L42.06-4.116C42.06-3.6456 41.88-2.2931999999999997 41.82-1.764 41.76-0.7644 42.66 0 43.68 0L47.34 0C48.36 0 49.26-0.7644 49.14-1.764 49.08-2.2931999999999997 48.96-3.6456 48.96-4.116L48.96-9.8196 48.96-9.995999999999999 48.96-15.1116C49.02-18.228 49.86-21.168 52.92-21.168 55.86-21.168 56.4-19.404 56.4-7.879199999999999L56.4-4.116C56.4-3.3516 56.28-2.5284 56.22-1.764 56.16-0.7644 57.06 0 58.02 0L61.74 0C62.76 0 63.6-0.7644 63.54-1.764ZM110.88-12.1128L111.18-25.4604C111.18-26.46 110.52-27.342 109.44-27.636L105.84-28.5768C104.1-29.0472 102.48-27.636 102.84-25.9308 102.9-25.8132 102.9-25.6368 102.96-25.519199999999998 101.52-27.048000000000002 99-28.3416 95.52-28.3416 88.62-28.3416 83.58-22.5204 83.58-13.4064 83.58-4.2924 87.96 0.2352 95.34 0.2352 99.66 0.2352 102.78-1.47 104.16-4.2336 104.7-1.9404 106.68 0 110.28 0 113.16 0 115.02-3.0576 115.14-5.292 115.14-5.4684 114.96-5.586 114.78-5.4684 112.2-4.174799999999999 110.7-5.3508 110.88-12.1128ZM90.72-14.817599999999999C91.02-19.3452 93.9-22.1088 98.1-21.8736 101.88-21.638399999999997 104.16-18.6984 103.98-14.112 103.74-9.584399999999999 100.92-6.1739999999999995 97.02-6.3504000000000005 92.88-6.5268 90.48-9.8196 90.72-14.817599999999999ZM119.28-23.814L119.28-5.586C119.28-2.7047999999999996 120.12 0 125.34 0 128.76 0 130.74-3.234 130.92-7.644 130.92-7.8204 130.74-7.938 130.56-7.8204 127.44-5.9976 126.18-7.5852 126.18-13.4652L126.18-31.9872C126.18-33.81 126.18-36.632400000000004 126.3-39.3372 126.36-40.3368 125.52-41.2188 124.5-41.5128L120.9-42.5712C118.5-43.218 117.96-41.571600000000004 118.08-39.925200000000004 118.5-35.8092 119.04-36.867599999999996 119.28-23.814ZM135-23.814L135-5.586C135-2.7047999999999996 135.84 0 141.06 0 144.48 0 146.46-3.234 146.64-7.644 146.64-7.8204 146.46-7.938 146.28-7.8204 143.16-5.9976 141.9-7.5852 141.9-13.4652L141.9-31.9872C141.9-33.81 141.9-36.632400000000004 142.02-39.3372 142.08-40.3368 141.24-41.2188 140.22-41.5128L136.62-42.5712C134.22-43.218 133.68-41.571600000000004 133.8-39.925200000000004 134.22-35.8092 134.76-36.867599999999996 135-23.814Z" stroke-width="0.9" stroke-linejoin="round" stroke="#000" fill="#fff"></path></mask><defs v-gra="od"></defs></svg>