<svg data-v-6805eed4="" version="1.0" xmlns="http://www.w3.org/2000/svg" xmlns:xlink="http://www.w3.org/1999/xlink" width="100%" height="100%" viewBox="0 0 340.000000 250.000000" preserveAspectRatio="xMidYMid meet" color-interpolation-filters="sRGB" style="margin: auto;">   <g data-v-6805eed4="" fill="#FFFFFF" class="basesvg" transform="translate(117.07500076293945,101.57999992370605)"><g data-gra="path-name" fill-rule="" class="tp-name"><g transform="scale(1)"><g><path d="M25.02 0.67L25.02 0.67Q22.85 0.67 20.98 0.81 19.1 0.94 16.93 1.2L16.93 1.2Q15.91-1.99 14.84-5.16 13.77-8.32 12.6-11.57L12.6-11.57Q11.43-8.2 10.33-4.89 9.23-1.58 8.09 1.61L8.09 1.61-0.12 1.2Q1.23-1.41 2.49-3.98 3.75-6.56 4.91-9.17 6.06-11.78 7.16-14.46 8.26-17.14 9.29-19.98L9.29-19.98Q7.21-25.14 4.85-30.51 2.49-35.89-0.18-41.81L-0.18-41.81Q0.97-41.84 1.99-41.88 3.02-41.92 4-41.97 4.98-42.01 5.96-42.04 6.94-42.07 7.97-42.13L7.97-42.13Q8.96-38.5 10.08-35.16 11.19-31.82 12.3-28.62L12.3-28.62Q13.3-31.73 14.28-35.07 15.26-38.41 16.26-42.13L16.26-42.13Q18.84-41.95 21.18-41.95L21.18-41.95Q22.09-41.95 22.97-41.95 23.85-41.95 24.84-42.01L24.84-42.01Q22-36.53 19.78-31.1 17.55-25.66 15.59-20.21L15.59-20.21Q17.96-14.47 20.36-9.33 22.76-4.19 25.02 0.67ZM45.91-15.29L45.91-15.29Q45.91-13.54 45.88-12.23 45.85-10.93 45.81-9.86 45.76-8.79 45.69-7.84 45.62-6.88 45.53-5.82 45.44-4.75 45.32-3.41 45.21-2.08 45.06-0.29L45.06-0.29 38.47-0.23Q38.88-4.95 39.07-9.3 39.26-13.65 39.26-17.93L39.26-17.93Q39.26-22 38.51-23.88 37.76-25.75 36.24-25.75L36.24-25.75Q35.65-25.58 35.1-24.96L35.1-24.96Q34.6-24.43 34.09-23.35 33.57-22.27 33.19-20.33L33.19-20.33Q33.13-18.9 33.13-17.5 33.13-16.11 33.13-14.77L33.13-14.77Q33.13-13.18 33.15-11.54 33.16-9.9 33.18-8.03 33.19-6.15 33.22-4 33.25-1.85 33.31 0.73L33.31 0.73 26.63 0.59Q26.84-2.78 26.98-5.42 27.13-8.06 27.23-10.28 27.33-12.51 27.38-14.5 27.42-16.49 27.42-18.6L27.42-18.6Q27.42-20.01 27.41-21.49 27.39-22.97 27.35-24.67 27.3-26.37 27.25-28.32 27.19-30.26 27.13-32.58L27.13-32.58 33.78-32.46 33.6-29.71Q34.45-31.38 35.39-32.29 36.33-33.19 37.15-33.6 37.97-34.01 38.54-34.07 39.11-34.13 39.26-34.13L39.26-34.13Q40.14-34.13 40.94-33.9 41.75-33.66 42.47-33.02 43.18-32.37 43.78-31.23 44.38-30.09 44.82-28.27L44.82-28.27Q45.62-30.5 46.79-31.7 47.96-32.9 49.09-33.44 50.21-33.98 51.08-34.06 51.94-34.13 52.09-34.13L52.09-34.13Q53.96-34.13 55.25-32.99 56.54-31.85 57.3-29.5 58.07-27.16 58.4-23.61 58.74-20.07 58.74-15.29L58.74-15.29Q58.74-13.71 58.59-11.63 58.45-9.55 58.21-7.34 57.98-5.13 57.71-2.96 57.45-0.79 57.25 0.91L57.25 0.91 50.65 0.67Q51.15-2.46 51.43-5.29 51.71-8.12 51.86-10.31L51.86-10.31Q52-12.86 52.03-15.06L52.03-15.06Q52.03-17.84 51.9-19.86 51.77-21.88 51.42-23.19 51.06-24.49 50.45-25.12 49.83-25.75 48.9-25.75L48.9-25.75Q48.28-25.58 47.72-25.08L47.72-25.08Q47.23-24.67 46.68-23.83 46.14-23 45.73-21.59L45.73-21.59Q45.91-18.9 45.91-15.29ZM83.29 0.79L76.52 1.2Q76.35 0.29 76.2-0.64 76.05-1.58 75.97-2.58L75.97-2.58Q74.62-0.59 72.74 0.48 70.87 1.55 68.64 1.55L68.64 1.55Q67.5 1.55 66.3 1.19 65.1 0.82 64.12-0.09 63.13-1 62.5-2.56 61.88-4.13 61.88-6.53L61.88-6.53Q61.88-8.53 62.46-10 63.05-11.48 63.98-12.6 64.92-13.71 66.09-14.53 67.27-15.35 68.42-16 69.58-16.64 70.63-17.2 71.69-17.75 72.36-18.31L72.36-18.31Q73.65-19.34 74.6-20.49 75.56-21.65 76.14-22.91L76.14-22.91Q76.03-24.93 75.72-26.24 75.41-27.54 74.91-28.32 74.41-29.09 73.7-29.4 72.98-29.71 72.07-29.71L72.07-29.71Q70.72-29.71 69.8-29.12 68.88-28.54 68.29-27.71L68.29-27.71Q69.02-27.25 69.42-26.72 69.81-26.19 70.02-25.69L70.02-25.69Q70.25-25.14 70.28-24.55L70.28-24.55Q70.28-22.56 69.16-21.5 68.03-20.45 66.27-20.45L66.27-20.45Q65.36-20.45 64.6-20.87 63.84-21.3 63.27-22.06 62.7-22.82 62.37-23.88 62.05-24.93 62.05-26.16L62.05-26.16Q62.05-27.39 62.61-28.77 63.16-30.15 64.39-31.33 65.63-32.52 67.56-33.3 69.49-34.07 72.25-34.07L72.25-34.07Q75-34.07 76.96-33 78.93-31.93 80.19-30.16 81.45-28.39 82.02-26.07 82.59-23.76 82.59-21.3L82.59-21.3Q82.59-19.45 82.56-17.29 82.53-15.12 82.53-12.83L82.53-12.83Q82.53-10.93 82.56-9.02 82.59-7.12 82.68-5.35 82.76-3.57 82.91-2.01 83.06-0.44 83.29 0.79L83.29 0.79ZM75.85-9.73L76.08-15.97Q75.06-14.74 73.89-13.86L73.89-13.86Q73.01-13.24 72-12.48 70.99-11.72 70.12-10.87 69.26-10.02 68.69-9.1 68.12-8.17 68.12-7.21L68.12-7.21Q68.12-5.89 68.76-4.95 69.4-4.01 70.58-4.01L70.58-4.01Q71.66-4.01 72.51-4.6 73.36-5.19 74.02-6.05 74.68-6.91 75.13-7.91 75.59-8.91 75.85-9.73L75.85-9.73ZM86.84-45.23L94.45-45.06Q94.28-41.48 94.13-38.44 93.98-35.39 93.88-32.7 93.78-30 93.72-27.57 93.66-25.14 93.62-22.76 93.57-20.39 93.56-17.99 93.54-15.59 93.54-12.95L93.54-12.95Q93.54-10.02 93.54-6.68 93.54-3.34 93.6 0.73L93.6 0.73 86.95 0.59Q87.13-3.84 87.19-8.13 87.25-12.42 87.25-16.93L87.25-16.93Q87.25-19.95 87.22-23.13 87.19-26.31 87.13-29.78 87.07-33.25 87-37.09 86.92-40.93 86.84-45.23L86.84-45.23ZM98.06-45.23L105.67-45.06Q105.5-41.48 105.35-38.44 105.21-35.39 105.1-32.7 105-30 104.94-27.57 104.88-25.14 104.84-22.76 104.79-20.39 104.78-17.99 104.77-15.59 104.77-12.95L104.77-12.95Q104.77-10.02 104.77-6.68 104.77-3.34 104.82 0.73L104.82 0.73 98.17 0.59Q98.35-3.84 98.41-8.13 98.47-12.42 98.47-16.93L98.47-16.93Q98.47-19.95 98.44-23.13 98.41-26.31 98.35-29.78 98.29-33.25 98.22-37.09 98.14-40.93 98.06-45.23L98.06-45.23Z" transform="translate(0.18000000715255737, 45.22999954223633)"></path></g> <!----> <!----> <!----> <!----> <!----> <!----> <!----></g></g> <!----></g><defs v-gra="od"></defs></svg>