<svg data-v-6805eed4="" version="1.0" xmlns="http://www.w3.org/2000/svg" xmlns:xlink="http://www.w3.org/1999/xlink" width="100%" height="100%" viewBox="0 0 340.000000 250.000000" preserveAspectRatio="xMidYMid meet" color-interpolation-filters="sRGB" style="margin: auto;">   <g data-v-6805eed4="" fill="#00a5a9" class="icon-text-wrapper icon-svg-group iconsvg" transform="translate(82.26999665051699,70.39356231689453)"><g class="iconsvg-imagesvg" transform="translate(57.730003356933594,0)"><g><rect fill="#00a5a9" fill-opacity="0" stroke-width="2" x="0" y="0" width="60" height="56.032872618602916" class="image-rect"></rect> <svg x="0" y="0" width="60" height="56.032872618602916" filtersec="colorsb9059803092" class="image-svg-svg primary" style="overflow: visible;"><svg xmlns="http://www.w3.org/2000/svg" viewBox="13.677627563476562 89.5285873413086 1476.3446044921875 1378.7261962890625"><g fill-rule="evenodd" clip-rule="evenodd"><path fill="#F08D00" d="M358.406 181.943C550.705 70.924 774.3 63.149 965.028 141.368l-57.756 33.342c-167.65-56.601-357.884-43.599-523.129 51.804-305.012 176.1-409.561 566.267-233.459 871.279 176.096 305.007 566.264 409.55 871.276 233.453 185.105-106.868 296.369-292.59 315.869-490.267l53.858-31.089c-10.432 226.913-132.717 443.941-343.995 565.929-329.625 190.309-751.274 77.33-941.577-252.3-190.313-329.618-77.328-751.268 252.291-941.576zm699.421 5.909l-51.649 29.82a637.01 637.01 0 0 1 84.719 54.722l47.961-27.691a686.894 686.894 0 0 0-81.031-56.851zm147.339 118.633l-45.885 26.491c21.022 21.533 40.692 44.789 58.827 69.669l44.813-25.873a687.636 687.636 0 0 0-57.755-70.287zm103.789 143.775l-44.605 25.751a639.248 639.248 0 0 1 37.178 82.169l45.185-26.085a690.8 690.8 0 0 0-37.758-81.835zm64.195 166.634l-46.629 26.921a633.982 633.982 0 0 1 13.22 95.999l49.409-28.525a685.037 685.037 0 0 0-16-94.395z"></path><path fill="#00A5A9" d="M413.555 277.454c69.461-40.106 143.791-64.161 218.694-73.335-29.125 38.673-53.036 80.618-71.49 124.693L169.17 554.897c47.212-112.791 130.338-211.603 244.385-277.443zm630.931-181.966L540.023 386.74 230.588 565.392l-82.155 47.433c-16.611 55.521-24.915 113.473-24.395 171.828l391.585-226.088a581.895 581.895 0 0 1 2.5-59.114L1153.08 132.86a582.853 582.853 0 0 0-108.594-37.372zm198.664 89.001L517.768 603.288 318.795 718.167 126.178 829.375a574.869 574.869 0 0 0 30.16 140.325l391.59-226.085a575.151 575.151 0 0 1-14.774-49.142l781.316-451.095a576.018 576.018 0 0 0-71.32-58.889zm131.619 127.706L562.554 781.127l-155.556 89.811-236.034 136.274a581.113 581.113 0 0 0 30.659 61.169c11.552 20.015 24.156 39.053 37.64 57.135l391.596-226.085a589.923 589.923 0 0 1-28.212-41.383l818.67-472.66c-2.883-5.38-1.587-3.39-8.903-16.059-7.316-12.669-24.156-39.047-37.645-57.134zm82.93 155.819l-801.665 462.84-160.828 92.858-230.763 133.228a574.66 574.66 0 0 0 106.449 96.282l391.59-226.085a576.151 576.151 0 0 1-42.758-32.99l760.946-439.333a574.74 574.74 0 0 0-22.971-86.8zm32.3 185.047a580.476 580.476 0 0 1-8.638 105.055l-585.923 338.286a584.178 584.178 0 0 0 65.703 19.738l-391.59 226.085c-56.381-13.378-110.733-35.155-160.998-64.789l174.854-100.954 216.736-125.131 689.856-398.29zm-324.587 474.515c-45.396 60.283-103.396 112.623-172.863 152.732-114.035 65.835-241.178 88.43-362.46 72.923l391.591-226.085c47.397 6.062 95.681 6.323 143.732.43z"></path></g></svg></svg> <!----></g></g> <g transform="translate(0,63.03287124633789)"><g data-gra="path-name" fill-rule="" class="tp-name iconsvg-namesvg"><g transform="scale(1)"><g><path d="M28.62-21.01L43.21 0 29.82 0 21.47-13.39 13.21 0 0.12 0 14.33-21.91 0.97-42.83 13.8-42.83 21.53-29.59 28.97-42.83 42.19-42.83 28.62-21.01ZM99.55 0L88.1 0 88.1-18.05Q88.1-21.42 87.17-23.1 86.25-24.79 84.26-24.79L84.26-24.79Q81.62-24.79 80.39-22.53 79.16-20.27 79.16-15.47L79.16-15.47 79.16 0 67.68 0 67.68-18.05Q67.68-21.42 66.8-23.1 65.92-24.79 63.96-24.79L63.96-24.79Q61.26-24.79 60.03-22.38 58.8-19.98 58.8-14.53L58.8-14.53 58.8 0 47.34 0 47.34-33.19 55.99-33.19 57.42-29.09 58.1-29.09Q59.41-31.38 61.92-32.58 64.42-33.78 67.62-33.78L67.62-33.78Q74.79-33.78 77.7-29.41L77.7-29.41 78.6-29.41Q80.01-31.46 82.51-32.62 85.02-33.78 88.04-33.78L88.04-33.78Q93.93-33.78 96.74-30.76 99.55-27.74 99.55-21.59L99.55-21.59 99.55 0ZM136.93 0L128.99 0 126.8-4.39 126.56-4.39Q124.25-1.52 121.85-0.47 119.44 0.59 115.63 0.59L115.63 0.59Q110.95 0.59 108.25-2.23 105.56-5.04 105.56-10.14L105.56-10.14Q105.56-15.44 109.25-18.03 112.94-20.63 119.94-20.95L119.94-20.95 125.48-21.12 125.48-21.59Q125.48-25.69 121.44-25.69L121.44-25.69Q117.8-25.69 112.21-23.23L112.21-23.23 108.9-30.79Q114.7-33.78 123.54-33.78L123.54-33.78Q129.93-33.78 133.43-30.62 136.93-27.45 136.93-21.77L136.93-21.77 136.93 0ZM120.5-7.5L120.5-7.5Q122.58-7.5 124.06-8.82 125.54-10.14 125.54-12.25L125.54-12.25 125.54-14.82 122.9-14.71Q117.25-14.5 117.25-10.55L117.25-10.55Q117.25-7.5 120.5-7.5ZM156.18-45.59L156.18 0 144.73 0 144.73-45.59 156.18-45.59ZM175.58-45.59L175.58 0 164.12 0 164.12-45.59 175.58-45.59Z" transform="translate(-0.12000000476837158, 45.59000015258789)"></path></g> <!----> <!----> <!----> <!----> <!----> <!----> <!----></g></g> <!----></g></g><defs v-gra="od"></defs></svg>